<?xml version="1.0" encoding="UTF-8" standalone="no"?>
<!DOCTYPE svg PUBLIC "-//W3C//DTD SVG 1.1//EN" "http://www.w3.org/Graphics/SVG/1.1/DTD/svg11.dtd">
<svg width="100%" height="100%" viewBox="0 0 128 128" version="1.1" xmlns="http://www.w3.org/2000/svg" xmlns:xlink="http://www.w3.org/1999/xlink" xml:space="preserve" xmlns:serif="http://www.serif.com/" style="fill-rule:evenodd;clip-rule:evenodd;stroke-linejoin:round;stroke-miterlimit:2;">
    <g transform="matrix(0.882812,0,0,0.882812,7.5,7.5)">
        <path d="M33.671,18.745L61.82,18.745L45.255,18.745L64,0L82.745,18.745L109.255,18.745L109.255,45.255L128,64L98.045,93.955L109.255,82.745L109.255,105.166L112.604,108.515L120.818,108.515L123.076,122.821L108.771,120.562L108.771,112.348L105.677,109.255L61.82,109.255L64,111.435L66.18,109.255L82.745,109.255L64,128L30.458,94.458L30.458,77.893L50.107,97.542L77.589,97.542L80.286,94.846L70.371,95.715C70.371,88.767 67.454,82.137 62.332,77.442C51.308,67.337 32.847,50.414 32.847,50.414C32.847,50.414 32.344,49.956 31.479,49.086L30.458,50.107L30.458,97.542L33.542,97.542L45.255,109.255L18.745,109.255L18.745,61.82L16.565,64L18.745,66.18L18.745,82.745L-0,64L18.745,45.255L18.745,33.013C14.444,26.193 10.387,17.749 8.629,8.374L8.77,8.4C18.275,10.208 26.816,14.372 33.671,18.745ZM97.542,77.589L95.101,80.03L95.97,70.115C89.022,70.115 82.393,67.199 77.698,62.077C67.592,51.052 50.67,32.592 50.67,32.592C50.67,32.592 50.211,32.088 49.341,31.223L50.107,30.458L77.893,30.458L66.18,18.745L61.82,18.745L64,16.565L97.542,50.107L97.542,33.542L94.458,30.458L97.542,30.458L97.542,77.589ZM106.807,68.628L109.255,66.18L109.255,61.82L111.435,64L106.807,68.628Z" style="fill:url(#_Linear1);"/>
    </g>
    <g transform="matrix(0.882812,0,0,0.882812,7.5,7.5)">
        <path d="M45.336,91.955L59.628,106.248L59.628,109.255L46.863,109.255L46.863,105.487L39.008,97.632L34.458,97.632L19.741,112.348L19.741,120.562L5.435,122.821L7.694,108.515L15.907,108.515L30.624,93.798L30.624,89.248L22.769,81.393L18.745,81.393L18.745,68.628L22.008,68.628L33.41,80.03L32.541,70.115L32.541,70.115C39.523,70.115 46.219,67.341 51.155,62.405C53.513,60.047 55.497,58.063 55.497,58.063C55.497,58.063 95.788,12.891 119.882,8.374L119.855,8.515C116.34,26.994 81.721,62.184 65.926,77.445C60.954,82.223 58.144,88.82 58.144,95.715C58.141,95.715 58.141,95.715 58.141,95.715L48.226,94.846L45.336,91.955Z" style="fill:url(#_Linear2);"/>
    </g>
    <defs>
        <linearGradient id="_Linear1" x1="0" y1="0" x2="1" y2="0" gradientUnits="userSpaceOnUse" gradientTransform="matrix(128,0,0,128,-1.42109e-14,64)"><stop offset="0" style="stop-color:rgb(89,90,103);stop-opacity:1"/><stop offset="0.5" style="stop-color:rgb(163,166,179);stop-opacity:1"/><stop offset="1" style="stop-color:rgb(89,90,103);stop-opacity:1"/></linearGradient>
        <linearGradient id="_Linear2" x1="0" y1="0" x2="1" y2="0" gradientUnits="userSpaceOnUse" gradientTransform="matrix(128,0,0,128,-1.42109e-14,64)"><stop offset="0" style="stop-color:rgb(123,126,142);stop-opacity:1"/><stop offset="0.24" style="stop-color:rgb(143,149,163);stop-opacity:1"/><stop offset="0.5" style="stop-color:rgb(198,213,221);stop-opacity:1"/><stop offset="0.76" style="stop-color:rgb(143,149,163);stop-opacity:1"/><stop offset="1" style="stop-color:rgb(123,126,142);stop-opacity:1"/></linearGradient>
    </defs>
</svg>
