<svg xmlns="http://www.w3.org/2000/svg" viewBox="0 0 314.09 314.09"><defs><style>.cls-1{fill:#fff;}.cls-2{fill:none;}</style></defs><g id="Livello_2" data-name="Livello 2"><g id="Livello_10" data-name="Livello 10"><path class="cls-1" d="M172.23,78.43,157.05,96.1,141.86,78.43A24,24,0,0,1,139.77,50l17.28-27.35L174.32,50A24,24,0,0,1,172.23,78.43Z"/><path class="cls-1" d="M268.12,172.71l-.78.57.59.51c-6.93,39.22-38.21,56.42-56,64.94-20.11,9.62-54.86,29.44-54.86,52.75,0-23.31-34.76-43.13-54.87-52.75-17.8-8.52-49.08-25.72-56-64.93l.6-.52L46,172.7a93.47,93.47,0,0,1-1.21-15.29c0-51,40.52-73.45,65.87-73.45,19.14,0,33,11.45,38.59,17.07a5.05,5.05,0,0,1,.65,6.34l-4.07,6.25a2.42,2.42,0,0,1-3.93.18C136.59,107.14,120.7,91.66,93,102,72.29,109.75,59.33,129,59.33,152s14.21,56.43,51.41,70.22,46.31,36.08,46.31,36.08,9.11-22.29,46.31-36.08S254.77,175,254.77,152s-13-42.21-33.65-49.94c-27.72-10.36-43.62,5.12-48.9,11.78a2.42,2.42,0,0,1-3.93-.18l-4.07-6.25a5.07,5.07,0,0,1,.65-6.34C170.51,95.41,184.33,84,203.46,84c25.36,0,65.87,22.44,65.87,73.45A93.51,93.51,0,0,1,268.12,172.71Z"/><path class="cls-1" d="M46.76,173.28l-.6.52c-.07-.36-.14-.73-.19-1.1Z"/><path class="cls-1" d="M140.75,206.42c-31.67-27.84-39-46.35-31.82-63s27.13-9.94,27.13-9.94c-17.07-17.7-31.49-14.39-39.49-9.91a26.73,26.73,0,0,0-11,12c-6.5,13.75-.57,27.06,9.45,38.36-6.32.52-14.13,3.24-18.63,12.44,0,0,4.65-4.77,11-5.6s12.7-1.17,17.62,2.8h0C121.32,197.37,140.75,206.42,140.75,206.42Z"/><path class="cls-1" d="M60.87,92.75A16.77,16.77,0,0,0,44.93,78.16l-20.36-.83,4.77,16.8a18.22,18.22,0,0,0,20,13.08l13.14-1.81Z"/><path class="cls-1" d="M46.76,173.28l-.6.52-7.89,6.83a12,12,0,0,1-14.52.94l-10-6.6,10.47-7.71a12,12,0,0,1,14.23,0L46,172.7Z"/><path class="cls-1" d="M268.12,172.71c-.05.36-.12.72-.19,1.08l-.59-.51Z"/><path class="cls-1" d="M173.35,206.42c31.66-27.84,39-46.35,31.81-63S178,133.45,178,133.45c17.07-17.7,31.49-14.39,39.5-9.91a26.73,26.73,0,0,1,11,12c6.49,13.75.57,27.06-9.45,38.36,6.32.52,14.12,3.24,18.63,12.44,0,0-4.65-4.77-11-5.6s-12.7-1.17-17.62,2.8h0C192.78,197.37,173.35,206.42,173.35,206.42Z"/><path class="cls-1" d="M253.22,92.75a16.79,16.79,0,0,1,15.94-14.59l20.37-.83-4.77,16.8a18.24,18.24,0,0,1-20,13.08l-13.14-1.81Z"/><path class="cls-1" d="M300.3,175l-10,6.6a12,12,0,0,1-14.51-.94l-7.9-6.84-.59-.51.78-.57,7.48-5.48a12,12,0,0,1,14.24,0Z"/><rect class="cls-2" width="314.09" height="314.09"/></g></g></svg>