<?xml version="1.0" encoding="UTF-8" standalone="no"?>
<!DOCTYPE svg PUBLIC "-//W3C//DTD SVG 1.1//EN" "http://www.w3.org/Graphics/SVG/1.1/DTD/svg11.dtd">
<svg width="100%" height="100%" viewBox="0 0 128 128" version="1.1" xmlns="http://www.w3.org/2000/svg" xmlns:xlink="http://www.w3.org/1999/xlink" xml:space="preserve" xmlns:serif="http://www.serif.com/" style="fill-rule:evenodd;clip-rule:evenodd;stroke-linejoin:round;stroke-miterlimit:2;">
    <g transform="matrix(1.01539,0,0,1.01539,-0.729369,-2.8008)">
        <path d="M66.701,17.504C67.117,19.584 68.812,21.167 70.915,21.442C90.494,24.181 105.748,40.462 106.927,60.5L92.89,60.5C91.624,46.216 79.611,35 65,35C49.546,35 37,47.546 37,63C37,78.454 49.546,91 65,91C67.652,91 70.219,90.63 72.65,89.94L78.033,102.935C76.841,103.324 75.626,103.662 74.389,103.945C72.876,104.288 71.611,105.322 70.974,106.738C69.588,109.805 67.178,115.161 65.883,118.038C65.726,118.386 65.381,118.609 65,118.609C64.619,118.609 64.274,118.386 64.117,118.038C62.821,115.158 60.407,109.793 59.026,106.725C58.385,105.3 57.107,104.261 55.581,103.923C42.47,100.927 31.696,91.778 26.449,79.683C25.631,77.753 23.683,76.55 21.592,76.685C21.265,76.686 20.933,76.707 20.6,76.729C20.139,76.758 19.722,76.459 19.602,76.013C19.483,75.567 19.695,75.099 20.108,74.895C20.338,74.781 20.568,74.668 20.794,74.556C22.734,73.596 23.825,71.489 23.491,69.352C23.163,67.282 23,65.16 23,63C23,56.167 24.635,49.713 27.534,44.01C28.53,42.119 28.191,39.802 26.696,38.275C23.936,35.414 19.542,30.926 16.822,28.148C16.518,27.838 16.458,27.363 16.675,26.987C16.892,26.611 17.333,26.426 17.754,26.534C22.395,27.725 30.659,29.847 34.758,30.899C36.26,31.284 37.855,30.944 39.069,29.979C44.75,25.499 51.618,22.462 59.119,21.409C61.203,21.123 62.878,19.548 63.29,17.485C63.537,16.314 63.802,14.991 64.051,13.746C64.141,13.293 64.539,12.968 65,12.968C65.461,12.968 65.859,13.293 65.949,13.746C66.199,14.997 66.465,16.326 66.701,17.504ZM96.764,93.846C95.189,93.442 93.515,93.838 92.287,94.904C89.907,96.957 87.288,98.738 84.482,100.211L79.091,87.197C86.173,83.061 91.28,75.904 92.64,67.5L106.761,67.5C106.203,72.732 104.682,77.678 102.38,82.157C101.377,84.051 101.715,86.376 103.214,87.907C105.394,90.171 108.525,93.368 110.675,95.563C110.979,95.874 111.039,96.348 110.822,96.725C110.604,97.101 110.163,97.286 109.743,97.178C106.029,96.225 100.129,94.71 96.764,93.846Z" style="fill:url(#_Linear1);"/>
    </g>
    <g transform="matrix(0.843103,0,0,0.843103,10.0414,9.83617)">
        <path d="M41.743,76.354L38.116,76.354L33.007,71.244C33.007,71.244 94.72,15.942 98.408,12.638C98.521,12.537 98.656,12.462 98.803,12.421C100.655,11.903 113.563,8.288 118.209,6.988C118.547,6.893 118.909,6.988 119.157,7.236C119.405,7.484 119.499,7.846 119.405,8.184C118.104,12.829 114.49,25.738 113.971,27.59C113.93,27.736 113.856,27.871 113.755,27.985C110.45,31.672 55.148,93.386 55.148,93.386L50.039,88.276L50.039,84.649L47.058,87.801L47.058,89.554L59.832,102.328L56.426,105.734L51.316,105.734L51.316,102.328L39.394,90.405L23.213,106.586L23.213,113.399L8.736,117.657L12.994,103.179L19.807,103.179L35.987,86.999L24.065,75.076L20.658,75.076L20.658,69.967L24.065,66.56L36.839,79.335L38.591,79.335L41.743,76.354Z" style="fill:url(#_Linear2);"/>
    </g>
    <defs>
        <linearGradient id="_Linear1" x1="0" y1="0" x2="1" y2="0" gradientUnits="userSpaceOnUse" gradientTransform="matrix(106.282,0,0,106.282,10.6076,65.5863)"><stop offset="0" style="stop-color:rgb(89,90,103);stop-opacity:1"/><stop offset="0.5" style="stop-color:rgb(160,163,176);stop-opacity:1"/><stop offset="1" style="stop-color:rgb(89,90,103);stop-opacity:1"/></linearGradient>
        <linearGradient id="_Linear2" x1="0" y1="0" x2="1" y2="0" gradientUnits="userSpaceOnUse" gradientTransform="matrix(128,0,0,128,-1.42109e-14,62.3041)"><stop offset="0" style="stop-color:rgb(123,126,142);stop-opacity:1"/><stop offset="0.5" style="stop-color:rgb(198,213,221);stop-opacity:1"/><stop offset="1" style="stop-color:rgb(123,126,142);stop-opacity:1"/></linearGradient>
    </defs>
</svg>
