<svg xmlns="http://www.w3.org/2000/svg" xml:space="preserve" style="fill-rule:evenodd;clip-rule:evenodd;stroke-linecap:round;stroke-linejoin:round;stroke-miterlimit:1.5" viewBox="0 0 142 614"><path d="M0 0h142v614H0z" style="fill:none"/><clipPath id="a"><path d="M0 0h142v614H0z"/></clipPath><g clip-path="url(#a)"><path d="M70.912 613.913c-.872-.855-8.102-7.802-16.324-11.269-19.921-8.401-21.702-23.58-21.702-23.58v-6.838s-4.068-7.183-13.329-7.183c-9.261 0-8.746-5.41-8.746-5.41s.119-6.255 0-6.255C.046 553.378 0 537.745 0 537.745V76.215c0-13.207 10.854-15.98 10.854-15.98s-.132-3.434-.132-4.622c0-1.189.529-6.34 7.396-6.34 9.377 0 14.792-6.339 14.792-6.339 0-14.395 1.32-20.602 18.885-29.319C69.36 4.899 71 0 71 0l.005.014c.113.295 2.183 5.157 19.2 13.601 17.565 8.717 18.885 14.924 18.885 29.319 0 0 5.415 6.339 14.792 6.339 6.867 0 7.396 5.151 7.396 6.34 0 1.188-.132 4.622-.132 4.622S142 63.008 142 76.215v461.53s-.046 15.633-10.811 15.633c-.119 0 0 6.255 0 6.255s.515 5.41-8.746 5.41c-9.261 0-13.329 7.183-13.329 7.183v6.838s-1.781 15.179-21.702 23.58C78.642 606.342 71 614 71 614l-.088-.087Z" style="fill:#000;stroke-width:2px"/><path d="M79.755 83.555a1.4 1.4 0 0 1 0 1.209l-7.072 14.823a1.381 1.381 0 0 0 1.843 1.844l14.823-7.073a1.402 1.402 0 0 1 1.21 0l14.822 7.073a1.383 1.383 0 0 0 1.844-1.844l-7.073-14.823a1.407 1.407 0 0 1 0-1.209l7.073-14.823a1.383 1.383 0 0 0-1.844-1.844l-14.822 7.073a1.402 1.402 0 0 1-1.21 0l-14.823-7.073a1.382 1.382 0 0 0-1.843 1.844l7.072 14.823Z" style="fill:#000" transform="scale(-.72305 .72305) rotate(45 -42.07 -127.237)"/><path d="M79.549 83.122a2.41 2.41 0 0 1 0 2.075l-5.663 11.867a2.373 2.373 0 0 0 3.163 3.163l11.867-5.663a2.41 2.41 0 0 1 2.075 0l11.868 5.663a2.372 2.372 0 0 0 3.162-3.163l-5.662-11.867a2.41 2.41 0 0 1 0-2.075l5.662-11.867a2.373 2.373 0 0 0-3.162-3.163l-11.868 5.663a2.41 2.41 0 0 1-2.075 0l-11.867-5.663a2.372 2.372 0 0 0-3.163 3.163l5.663 11.867Z" style="fill:#000" transform="scale(-.42152 .42152) rotate(45 -34.05 -229.898)"/><path d="M79.549 83.122a2.41 2.41 0 0 1 0 2.075l-5.663 11.867a2.373 2.373 0 0 0 3.163 3.163l11.867-5.663a2.41 2.41 0 0 1 2.075 0l11.868 5.663a2.372 2.372 0 0 0 3.162-3.163l-5.662-11.867a2.41 2.41 0 0 1 0-2.075l5.662-11.867a2.373 2.373 0 0 0-3.162-3.163l-11.868 5.663a2.41 2.41 0 0 1-2.075 0l-11.867-5.663a2.372 2.372 0 0 0-3.163 3.163l5.663 11.867Z" style="fill:#000" transform="scale(-.42152 .42152) rotate(45 -324.347 -109.653)"/><path d="M10.862 554.352c-4.174-.357-6.945-2.913-8.746-5.979-2.758-4.694-3.179-10.559-3.179-10.559a.796.796 0 0 1-.003-.069V76.215c0-11.849 9.054-15.78 11.893-16.721-.039-1.093-.105-3.042-.105-3.881 0-.817-.156-3.253 1.367-5.083 1.032-1.242 2.826-2.273 6.029-2.273 7.947 0 14.499-6.336 15.857-7.745-.005-7.181-.117-11.853 1.897-15.826 2.062-4.069 6.345-7.463 15.432-11.973C61.692 7.558 66.437 4.131 68.565 2.204c1.101-.998 1.462-1.602 1.462-1.602L71 2.033s.624-2.307.994-1.382c.042.063.529.781 1.639 1.757 2.223 1.955 6.994 5.308 17.063 10.305 9.087 4.51 13.37 7.904 15.432 11.973 2.014 3.973 1.902 8.645 1.898 15.827 1.358 1.408 7.909 7.744 15.856 7.744 3.203 0 4.997 1.031 6.029 2.273 1.523 1.83 1.367 4.266 1.367 5.083 0 .839-.066 2.788-.105 3.881 2.839.941 11.893 4.872 11.893 16.721v461.53a.796.796 0 0 1-.003.069s-.421 5.865-3.179 10.559c-1.801 3.066-4.572 5.622-8.746 5.979-.016 1.542.038 4.563.049 5.155.121.563.421 2.63-1.266 4.33-1.153 1.163-3.33 2.222-7.478 2.222-7.874 0-13.378 7.098-14.395 8.509l.001 6.517c.01.487.12 13.918-20.207 22.489-8.616 3.633-16.125 10.161-16.125 10.161-.183.16-.42.253-.667.264L71 614c-.316 0-.608-.133-.806-.353a.602.602 0 0 1-.046-.042c-.853-.837-7.94-6.636-15.99-10.031-20.346-8.58-20.217-22.028-20.206-22.489l-.001-6.518c-1.015-1.409-6.519-8.508-14.394-8.508-4.148 0-6.325-1.059-7.478-2.222-1.688-1.701-1.387-3.769-1.266-4.326.011-.596.065-3.618.049-5.159ZM70.975 2.728c.303.331.7.723 1.214 1.176 2.285 2.009 7.174 5.477 17.524 10.613 8.478 4.207 12.573 7.258 14.497 11.054 1.936 3.821 1.684 8.337 1.684 15.33 0 .243.091.478.257.663 0 0 7.917 8.726 17.731 8.726 2.291 0 3.621.616 4.36 1.504 1.136 1.366.905 3.209.905 3.819 0 1.179-.132 4.585-.132 4.585-.018.482.321.91.813 1.025 0 0 11.106 2.63 11.106 14.992v461.493c-.036.456-.491 5.555-2.909 9.67-1.583 2.696-4.034 4.984-7.901 4.984-.262 0-.552.074-.803.346-.049.053-.257.302-.289.781-.069 1.027.027 6.163.027 6.163a.915.915 0 0 0 .039.254s.394 1.406-.724 2.534c-.908.914-2.669 1.586-5.931 1.586-9.779 0-16.357 9.685-16.357 9.685a.982.982 0 0 0-.169.549v6.837l.001.026s.203 12.52-18.937 20.591c-7.288 3.073-13.811 8.143-15.956 9.898-2.148-1.811-8.691-6.813-16.006-9.898-19.14-8.071-18.937-20.591-18.937-20.591l.001-.026v-6.837a.982.982 0 0 0-.169-.549s-6.578-9.685-16.357-9.685c-3.262 0-5.023-.672-5.931-1.586-1.118-1.128-.724-2.534-.724-2.534a.915.915 0 0 0 .039-.254s.096-5.136.027-6.163c-.032-.479-.24-.728-.289-.781a1.044 1.044 0 0 0-.803-.346c-3.867 0-6.318-2.288-7.901-4.984-2.407-4.096-2.869-9.166-2.909-9.662V76.215c0-12.362 11.106-14.992 11.106-14.992.492-.115.831-.543.813-1.025 0 0-.132-3.406-.132-4.585 0-.61-.231-2.453.905-3.819.739-.888 2.069-1.504 4.36-1.504 9.814 0 17.731-8.726 17.731-8.726a.992.992 0 0 0 .257-.663c0-6.993-.252-11.509 1.684-15.33 1.924-3.796 6.019-6.847 14.497-11.054C64.518 8.448 69.215 4.591 70.975 2.728ZM72.006.683c.081.231-.746 1.102-.954 1.317l.936-.603s-.034.088-.15.268l.04-.051a.979.979 0 0 0 .128-.931Zm-1.967.776Z" style="fill:#000" transform="matrix(.93851 0 0 .98356 4.366 5.047)"/></g></svg>