<?xml version="1.0" encoding="UTF-8" standalone="no"?>
<!DOCTYPE svg PUBLIC "-//W3C//DTD SVG 1.1//EN" "http://www.w3.org/Graphics/SVG/1.1/DTD/svg11.dtd">
<svg width="100%" height="100%" viewBox="0 0 128 128" version="1.1" xmlns="http://www.w3.org/2000/svg" xmlns:xlink="http://www.w3.org/1999/xlink" xml:space="preserve" xmlns:serif="http://www.serif.com/" style="fill-rule:evenodd;clip-rule:evenodd;stroke-linejoin:round;stroke-miterlimit:2;">
    <path d="M67.947,24.753C68.032,25.192 68.387,25.528 68.829,25.589C86.414,28.109 99.949,43.252 99.949,61.532C99.949,61.532 99.945,61.629 99.938,61.764C99.912,62.265 100.26,62.708 100.752,62.803C104.2,63.465 117.209,65.966 124.579,67.383C125.057,67.474 125.401,67.892 125.401,68.378C125.401,68.864 125.057,69.281 124.579,69.373C116.389,70.947 101.055,73.895 98.02,74.478C97.691,74.542 97.416,74.769 97.293,75.081C92.687,86.586 82.344,95.172 69.811,97.324C69.384,97.395 69.046,97.724 68.965,98.149C68.252,101.844 64.948,119.033 63.262,127.804C63.171,128.281 62.753,128.626 62.267,128.626C61.781,128.626 61.364,128.281 61.272,127.804C59.555,118.872 56.153,101.172 55.457,97.549C55.38,97.15 55.078,96.832 54.683,96.734C44.542,94.161 36.097,87.314 31.38,78.227C31.205,77.886 30.854,77.671 30.47,77.671C27.192,77.666 11.853,77.652 3.611,77.645C3.125,77.644 2.708,77.299 2.617,76.822C2.525,76.344 2.786,75.87 3.237,75.69C10.508,72.795 23.649,67.564 26.865,66.283C27.29,66.114 27.551,65.682 27.504,65.226C27.381,64.012 27.318,62.78 27.318,61.532C27.318,55.76 28.667,50.301 31.068,45.453C31.263,45.064 31.181,44.593 30.865,44.292C29.313,42.812 24.709,38.429 21.596,35.463C21.257,35.14 21.183,34.628 21.417,34.223C21.651,33.818 22.132,33.625 22.58,33.757C26.948,35.043 33.575,36.993 35.587,37.585C35.952,37.692 36.346,37.579 36.599,37.295C41.551,31.776 48.166,27.78 55.652,26.098C56.035,26.014 56.332,25.709 56.406,25.324C57.015,22.159 59.739,7.989 61.237,0.196C61.329,-0.281 61.746,-0.626 62.232,-0.626C62.718,-0.626 63.135,-0.281 63.227,0.196C64.689,7.801 67.312,21.45 67.947,24.753ZM42.562,51.568C42.806,51.202 42.774,50.719 42.486,50.387C41.251,48.967 38.003,45.237 36.404,43.401C36.269,43.247 36.248,43.025 36.35,42.848C36.452,42.671 36.656,42.578 36.856,42.617C39.868,43.206 46.942,44.588 48.717,44.935C48.979,44.986 49.251,44.935 49.476,44.792C52.92,42.637 56.989,41.392 61.346,41.392C73.724,41.392 83.774,51.442 83.774,63.82C83.774,76.198 73.724,86.247 61.346,86.247C48.968,86.247 38.919,76.198 38.919,63.82C38.919,59.3 40.259,55.09 42.562,51.568ZM62.232,52.11C68.794,52.11 74.122,57.438 74.122,64C74.122,70.562 68.794,75.89 62.232,75.89C55.67,75.89 50.342,70.562 50.342,64C50.342,57.438 55.67,52.11 62.232,52.11Z" style="fill:url(#_Linear1);"/>
    <path d="M71.352,91.219L71.352,97.752L59.915,115.077L77.886,103.64L83.774,103.64L83.774,91.219L71.352,91.219ZM107.457,20.935C105.155,18.634 92.775,29.149 85.434,29.149C78.093,29.149 65.903,18.634 63.411,20.935C60.919,23.237 73.835,36.016 70.481,42.958C63.619,57.161 30.279,95.62 22.239,106.153C32.771,98.113 71.231,64.773 85.434,57.911C92.376,54.556 105.155,67.473 107.457,64.981C109.758,62.489 99.243,50.299 99.243,42.958C99.243,35.617 109.758,23.237 107.457,20.935ZM24.432,45.237L24.432,51.771L12.996,69.096L30.966,57.659L36.854,57.659L36.854,45.237L24.432,45.237Z" style="fill:url(#_Linear2);"/>
    <defs>
        <linearGradient id="_Linear1" x1="0" y1="0" x2="1" y2="0" gradientUnits="userSpaceOnUse" gradientTransform="matrix(128,0,0,128,0,64)"><stop offset="0" style="stop-color:rgb(89,90,103);stop-opacity:1"/><stop offset="0.5" style="stop-color:rgb(160,163,176);stop-opacity:1"/><stop offset="1" style="stop-color:rgb(89,90,103);stop-opacity:1"/></linearGradient>
        <linearGradient id="_Linear2" x1="0" y1="0" x2="1" y2="0" gradientUnits="userSpaceOnUse" gradientTransform="matrix(94.7902,0,0,94.4713,12.9957,67.8415)"><stop offset="0" style="stop-color:rgb(123,126,142);stop-opacity:1"/><stop offset="0.5" style="stop-color:rgb(198,213,221);stop-opacity:1"/><stop offset="1" style="stop-color:rgb(123,126,142);stop-opacity:1"/></linearGradient>
    </defs>
</svg>
