<?xml version="1.0" encoding="UTF-8" standalone="no"?>
<!DOCTYPE svg PUBLIC "-//W3C//DTD SVG 1.1//EN" "http://www.w3.org/Graphics/SVG/1.1/DTD/svg11.dtd">
<svg width="100%" height="100%" viewBox="0 0 128 128" version="1.1" xmlns="http://www.w3.org/2000/svg" xmlns:xlink="http://www.w3.org/1999/xlink" xml:space="preserve" xmlns:serif="http://www.serif.com/" style="fill-rule:evenodd;clip-rule:evenodd;stroke-linejoin:round;stroke-miterlimit:2;">
    <g transform="matrix(0.777344,0,0,0.777344,14.3196,14.25)">
        <path d="M38.715,69.161L38.715,91.266L60.82,87.121L60.82,73.306L67.727,73.306L70.491,96.792L29.044,102.318L30.426,58.109L108.396,62.253L102.87,66.398L102.87,77.45L127.737,77.45C127.737,77.45 130.501,107.845 104.251,127.186C104.251,127.257 71.094,127.186 71.094,127.186C71.094,127.186 62.896,127.186 62.896,117.515C62.896,107.845 75.239,107.845 75.239,107.845C75.239,107.845 75.085,111.838 75.221,111.989C69.712,112.003 69.712,119.072 69.712,123.042C69.712,123.236 82.837,123.042 82.837,123.042C82.837,123.042 101.488,124.423 101.488,111.989L101.488,88.503L78.002,88.503L78.002,69.161L38.715,69.161ZM75.221,111.989C75.224,111.992 75.227,111.994 75.23,111.994C75.232,111.994 75.235,111.992 75.239,111.989L75.221,111.989ZM15.228,52.6L15.229,52.583C15.222,52.589 15.222,52.594 15.228,52.6C15.214,58.109 8.145,58.109 4.176,58.109C3.982,58.109 4.176,44.984 4.176,44.984C4.176,44.984 2.795,26.333 15.229,26.333L38.715,26.333L38.715,49.819L58.057,49.819L58.057,55.346L64.964,55.346L64.964,19.425L60.82,24.951L49.767,24.951L49.767,0.084C49.767,0.084 19.373,-2.68 0.031,23.57C-0.039,23.57 0.031,56.727 0.031,56.727C0.031,56.727 0.031,64.925 9.702,64.925C19.373,64.925 19.373,52.583 19.373,52.583C19.373,52.583 15.381,52.736 15.228,52.6ZM95.359,33.241L71.872,33.241L71.872,56.727L95.359,56.727L95.359,33.241Z" style="fill:url(#_Linear1);"/>
    </g>
    <g transform="matrix(0.75939,-0.75939,0.75939,0.75939,-36.2867,60.5927)">
        <path d="M4,64L7,67L10,64L7,61L10,58L12,60L19.942,60L22,58L30,66L100,66L102,64L100,62L105,57L128,68.934L105,80.868L100,75.868L102,73.868L100,71.868L30,71.868L22,79.868L20,78L12,78L10,80L7,77L10,73.868L7,70.868L4,73.868L-1,68.934L4,64Z" style="fill:url(#_Linear2);"/>
    </g>
    <defs>
        <linearGradient id="_Linear1" x1="0" y1="0" x2="1" y2="0" gradientUnits="userSpaceOnUse" gradientTransform="matrix(127.284,0,0,127.284,0,55)"><stop offset="0" style="stop-color:rgb(89,90,103);stop-opacity:1"/><stop offset="0.5" style="stop-color:rgb(160,163,176);stop-opacity:1"/><stop offset="1" style="stop-color:rgb(89,90,103);stop-opacity:1"/></linearGradient>
        <linearGradient id="_Linear2" x1="0" y1="0" x2="1" y2="0" gradientUnits="userSpaceOnUse" gradientTransform="matrix(65.4054,65.4054,-65.4054,65.4054,34.8154,31.8575)"><stop offset="0" style="stop-color:rgb(123,126,142);stop-opacity:1"/><stop offset="0.5" style="stop-color:rgb(198,213,221);stop-opacity:1"/><stop offset="1" style="stop-color:rgb(123,126,142);stop-opacity:1"/></linearGradient>
    </defs>
</svg>
